<svg width="76" height="30" viewBox="0 0 76 19" fill="none" xmlns="http://www.w3.org/2000/svg">
<g filter="url(#filter0_d_1_2)">
<path d="M4.05 11V0.2H7.545C7.63 0.2 7.805 0.2025 8.07 0.2075C8.335 0.2125 8.59 0.229999 8.835 0.26C9.705 0.365 10.4425 0.6675 11.0475 1.1675C11.6525 1.6675 12.1125 2.3025 12.4275 3.0725C12.7425 3.8425 12.9 4.685 12.9 5.6C12.9 6.515 12.7425 7.3575 12.4275 8.1275C12.1125 8.8975 11.6525 9.5325 11.0475 10.0325C10.4425 10.5325 9.705 10.835 8.835 10.94C8.59 10.97 8.335 10.9875 8.07 10.9925C7.805 10.9975 7.63 11 7.545 11H4.05ZM6.12 9.08H7.545C7.68 9.08 7.8625 9.0775 8.0925 9.0725C8.3225 9.0625 8.53 9.04 8.715 9.005C9.185 8.91 9.5675 8.69 9.8625 8.345C10.1625 8 10.3825 7.585 10.5225 7.1C10.6675 6.615 10.74 6.115 10.74 5.6C10.74 5.06 10.665 4.5475 10.515 4.0625C10.37 3.5775 10.1475 3.1675 9.8475 2.8325C9.5475 2.4975 9.17 2.285 8.715 2.195C8.53 2.155 8.3225 2.1325 8.0925 2.1275C7.8625 2.1225 7.68 2.12 7.545 2.12H6.12V9.08ZM16.8853 11V6.605L13.1953 0.2H15.5803L17.9203 4.265L20.2603 0.2H22.6453L18.9553 6.605V11H16.8853ZM23.6936 11V0.2H25.5236L29.0936 7.37L32.6636 0.2H34.4936V11H32.5886V4.55L29.4536 11H28.7336L25.5986 4.55V11H23.6936ZM36.5988 11V0.2H43.6488V2.105H38.6388V4.415H42.7488V6.32H38.6388V9.095H43.6488V11H36.5988ZM47.9515 11V2.105H44.5465V0.2H53.3965V2.105H49.9915V11H47.9515ZM53.5588 11L56.8588 0.2H59.9038L63.2038 11H61.1038L58.1638 1.475H58.5538L55.6588 11H53.5588ZM55.5388 8.75V6.845H61.2388V8.75H55.5388ZM64.698 11V0.2H66.738V9.095H71.388V11H64.698Z" fill="#785c48"/>
</g>
<defs>
<filter id="filter0_d_1_2" x="0.0499878" y="0.199997" width="75.3381" height="18.8" filterUnits="userSpaceOnUse" color-interpolation-filters="sRGB">
<feFlood flood-opacity="0" result="BackgroundImageFix"/>

<feOffset dy="4"/>
<feGaussianBlur stdDeviation="2"/>
<feComposite in2="hardAlpha" operator="out"/>
<feColorMatrix type="matrix" values="0 0 0 0 0 0 0 0 0 0 0 0 0 0 0 0 0 0 0.25 0"/>
<feBlend mode="normal" in="SourceGraphic" in2="effect1_dropShadow_1_2" result="shape"/>
</filter>
</defs>
</svg>

